HIERARCHY
ROOT Hips
{
 OFFSET 0.000000 0.000000 0.000000
 CHANNELS 6 Xposition Yposition Zposition Yrotation Xrotation Zrotation
 JOINT Chest
 {
  OFFSET 0.000000 9.585900 0.002600
  CHANNELS 3 Yrotation Xrotation Zrotation
  JOINT Chest2
  {
   OFFSET 0.000000 9.601200 -0.005300
   CHANNELS 3 Yrotation Xrotation Zrotation
   JOINT Chest3
   {
    OFFSET 0.000000 9.561800 0.000000
    CHANNELS 3 Yrotation Xrotation Zrotation
    JOINT Chest4
    {
     OFFSET 0.000000 9.552100 0.000000
     CHANNELS 3 Yrotation Xrotation Zrotation
     JOINT Neck
     {
      OFFSET 0.000000 14.453000 0.000000
      CHANNELS 3 Yrotation Xrotation Zrotation
      JOINT Head
      {
       OFFSET 0.000000 8.936500 -0.011300
       CHANNELS 3 Yrotation Xrotation Zrotation
       End Site
       {
        OFFSET 0.000000 17.073600 -0.006000
       }
      }
     }
     JOINT RightCollar
     {
      OFFSET -2.921100 9.558500 0.000000
      CHANNELS 3 Yrotation Xrotation Zrotation
      JOINT RightShoulder
      {
       OFFSET -13.519700 0.000000 0.000000
       CHANNELS 3 Yrotation Xrotation Zrotation
       JOINT RightElbow
       {
        OFFSET 0.000000 -29.696600 0.000000
        CHANNELS 3 Yrotation Xrotation Zrotation
        JOINT RightWrist
        {
         OFFSET 0.000000 -24.004700 0.000000
         CHANNELS 3 Yrotation Xrotation Zrotation
         End Site
         {
          OFFSET 0.000000 -17.728500 0.000000
         }
        }
       }
      }
     }
     JOINT LeftCollar
     {
      OFFSET 2.921100 9.558500 0.000000
      CHANNELS 3 Yrotation Xrotation Zrotation
      JOINT LeftShoulder
      {
       OFFSET 13.519700 0.000000 0.000000
       CHANNELS 3 Yrotation Xrotation Zrotation
       JOINT LeftElbow
       {
        OFFSET 0.000000 -29.696600 0.000000
        CHANNELS 3 Yrotation Xrotation Zrotation
        JOINT LeftWrist
        {
         OFFSET 0.000000 -24.004700 0.000000
         CHANNELS 3 Yrotation Xrotation Zrotation
         End Site
         {
          OFFSET 0.000000 -17.728500 0.000000
         }
        }
       }
      }
     }
    }
   }
  }
 }
 JOINT RightHip
 {
  OFFSET -7.771700 -0.012900 -0.001300
  CHANNELS 3 Yrotation Xrotation Zrotation
  JOINT RightKnee
  {
   OFFSET 0.000000 -40.869800 0.001200
   CHANNELS 3 Yrotation Xrotation Zrotation
   JOINT RightAnkle
   {
    OFFSET 0.000000 -39.717900 0.002100
    CHANNELS 3 Yrotation Xrotation Zrotation
    JOINT RightToe
    {
     OFFSET 0.000000 -4.965400 11.033500
     CHANNELS 3 Yrotation Xrotation Zrotation
     End Site
     {
      OFFSET 0.000000 -1.423100 5.872300
     }
    }
   }
  }
 }
 JOINT LeftHip
 {
  OFFSET 7.771700 -0.012900 -0.001300
  CHANNELS 3 Yrotation Xrotation Zrotation
  JOINT LeftKnee
  {
   OFFSET 0.000000 -40.869800 0.001200
   CHANNELS 3 Yrotation Xrotation Zrotation
   JOINT LeftAnkle
   {
    OFFSET 0.000000 -39.717900 0.002100
    CHANNELS 3 Yrotation Xrotation Zrotation
    JOINT LeftToe
    {
     OFFSET 0.000000 -4.965400 11.033500
     CHANNELS 3 Yrotation Xrotation Zrotation
     End Site
     {
      OFFSET 0.000000 -1.423100 5.872300
     }
    }
   }
  }
 }
}
MOTION
Frames: 9
Frame Time: 0.008333
-90.141707 62.096294 18.112495 173.332309 -47.640044 -0.541373 4.206349 25.517884 1.423670 0.576827 4.098224 0.221886 0.936470 6.570258 0.338921 3.235194 20.895075 1.561165 6.865208 15.531606 0.828407 12.494992 -6.690943 -0.990028 5.089454 2.648826 4.694759 -2.389371 -2.349270 -15.719327 -130.567570 -64.357203 160.894044 11.576655 -0.174385 4.992601 -9.345768 1.328415 0.301008 6.794515 -13.375909 15.601254 -177.590372 -59.449900 172.991184 1.957993 -8.106669 9.582520 2.831966 -19.666697 -4.153038 -1.451669 60.740824 -4.650479 2.512358 -5.807070 10.067120 0.218452 -0.501239 0.091397 -3.572256 -15.978033 4.753054 28.586055 76.009845 30.391600 1.419163 -11.229958 -5.294661 0.256986 0.747067 0.109770
-90.140784 62.096534 18.111959 173.328392 -47.645400 -0.533351 4.195257 25.494144 1.444180 0.578339 4.110737 0.207522 0.929664 6.547958 0.362327 3.224331 20.887768 1.577924 7.140957 15.576726 0.781405 13.025909 -6.636435 -1.121738 5.101446 2.691088 4.638587 -2.401548 -2.321789 -15.719180 -130.498713 -64.371688 160.856043 11.606806 -0.201612 4.967280 -9.292303 1.393705 0.306974 7.778876 -14.251513 15.214087 -177.105958 -58.932197 172.984784 2.126466 -8.241339 10.623142 2.823328 -19.664945 -4.157602 -1.448493 60.745282 -4.651928 2.523908 -5.805098 10.063398 0.216052 -0.503032 0.092168 -3.570721 -15.970245 4.746270 28.592591 76.004334 30.399582 1.413380 -11.229505 -5.295625 0.264834 0.746341 0.110853
-90.139655 62.096915 18.111158 173.331431 -47.652246 -0.531326 4.182720 25.484604 1.449562 0.575717 4.104278 0.213088 0.927870 6.548885 0.360442 3.220531 20.891006 1.578589 7.411552 15.588999 0.773087 13.533826 -6.575904 -1.242454 5.115999 2.700511 4.619163 -2.412771 -2.293598 -15.718429 -130.504865 -64.370070 160.868093 11.613851 -0.185764 4.974636 -9.263818 1.424141 0.317787 8.741296 -15.132274 14.840493 -176.625510 -58.432932 173.006485 2.308856 -8.365543 11.653016 2.818121 -19.659952 -4.160797 -1.464888 60.749638 -4.666814 2.535080 -5.805107 10.059776 0.217209 -0.504985 0.093547 -3.572333 -15.961934 4.740491 28.579344 76.002557 30.389163 1.417336 -11.226590 -5.300465 0.266045 0.745055 0.112711
-90.138953 62.097433 18.109941 173.331972 -47.661096 -0.524963 4.171924 25.475149 1.452383 0.574118 4.101668 0.214517 0.925393 6.545093 0.362689 3.219425 20.910248 1.567318 7.669021 15.585665 0.779602 14.013939 -6.510890 -1.350460 5.169003 2.651688 4.627194 -2.459915 -2.211624 -15.733442 -130.539065 -64.360644 160.900590 11.628565 -0.143778 4.997374 -9.239882 1.443395 0.341834 9.668187 -16.016388 14.449520 -176.128850 -57.944350 173.042613 2.510725 -8.475346 12.675563 2.817973 -19.653322 -4.161891 -1.470199 60.756680 -4.677299 2.529239 -5.806866 10.059290 0.221300 -0.506278 0.096444 -3.570976 -15.951570 4.733570 28.554678 76.003369 30.367242 1.414764 -11.225081 -5.300914 0.264131 0.742093 0.113332
-90.138716 62.098326 18.108094 173.332715 -47.673604 -0.516651 4.164809 25.478212 1.448637 0.570976 4.087930 0.222259 0.923297 6.540722 0.365156 3.210374 20.910199 1.575525 7.913433 15.605756 0.770442 14.462581 -6.442986 -1.444127 5.208692 2.651859 4.611373 -2.481301 -2.125063 -15.744370 -130.622099 -64.345952 160.979989 11.640119 -0.138437 5.001108 -9.200776 1.486339 0.361695 10.569410 -16.900059 14.018083 -175.622953 -57.464686 173.088421 2.727177 -8.590051 13.687205 2.817488 -19.641868 -4.167675 -1.473734 60.762894 -4.683654 2.526260 -5.810706 10.058032 0.225048 -0.506293 0.097902 -3.572545 -15.934085 4.725002 28.533791 75.999884 30.344731 1.411686 -11.230300 -5.302495 0.262690 0.745920 0.114851
-90.137735 62.099064 18.106230 173.331590 -47.685505 -0.513432 4.162477 25.478970 1.451508 0.568004 4.074545 0.231559 0.922304 6.543512 0.363115 3.206641 20.896314 1.586179 8.140440 15.631293 0.770445 14.881416 -6.372169 -1.524557 5.249037 2.654787 4.604623 -2.521759 -2.084597 -15.758511 -130.630347 -64.359524 160.997758 11.647128 -0.128808 5.008860 -9.164681 1.526260 0.411427 11.472850 -17.764177 13.539353 -175.126406 -56.991722 173.143552 2.945739 -8.733205 14.674311 2.813253 -19.631067 -4.166407 -1.470053 60.767363 -4.685396 2.526660 -5.812916 10.056873 0.225445 -0.507512 0.098709 -3.572615 -15.919511 4.722472 28.529175 75.998596 30.340116 1.415355 -11.229467 -5.308118 0.261919 0.743787 0.117964
-90.141164 62.098869 18.104369 173.340242 -47.690814 -0.494355 4.138613 25.466034 1.434992 0.569946 4.082550 0.225704 0.922207 6.548701 0.359776 3.204357 20.866441 1.608088 8.352397 15.656561 0.773346 15.271351 -6.297444 -1.592262 5.280025 2.652319 4.600210 -2.544822 -2.015799 -15.779270 -130.662065 -64.369735 161.050775 11.654712 -0.138744 4.981201 -9.163034 1.546865 0.402605 12.379658 -18.609623 13.090121 -174.607050 -56.522946 173.177230 3.146959 -8.905214 15.629609 2.814923 -19.624631 -4.192491 -1.463727 60.770758 -4.680782 2.504191 -5.808817 10.050035 0.248427 -0.510879 0.107786 -3.577487 -15.913030 4.698996 28.530049 75.998493 30.335518 1.387126 -11.251063 -5.316509 0.294332 0.760679 0.130565
-90.141140 62.098587 18.102741 173.347639 -47.696046 -0.498915 4.129967 25.450184 1.447162 0.569908 4.091074 0.219653 0.919024 6.529202 0.370910 3.199102 20.857947 1.618120 8.549557 15.684872 0.777100 15.627481 -6.218402 -1.645259 5.291780 2.674145 4.584706 -2.552889 -1.969389 -15.789860 -130.711120 -64.366238 161.106061 11.656716 -0.134269 4.976242 -9.174845 1.560030 0.374210 13.245480 -19.429576 12.628010 -174.013506 -56.054712 173.165917 3.315985 -9.092192 16.544323 2.811328 -19.619320 -4.194020 -1.461478 60.774349 -4.676604 2.501473 -5.812548 10.048909 0.246097 -0.510173 0.108028 -3.584323 -15.908256 4.697724 28.538199 75.999604 30.341653 1.396879 -11.249739 -5.318611 0.291576 0.758777 0.130776
-90.141937 62.098491 18.100557 173.347038 -47.703603 -0.496620 4.125480 25.411630 1.472574 0.567929 4.079694 0.223454 0.914186 6.552189 0.361038 3.194304 20.847619 1.627434 8.730493 15.716650 0.779242 15.948444 -6.137493 -1.683797 5.302679 2.699832 4.567528 -2.553096 -1.926962 -15.806138 -130.756726 -64.357983 161.143724 11.700368 -0.105266 5.021560 -9.185704 1.587453 0.335996 14.015041 -20.232336 12.153339 -173.298800 -55.574813 173.100229 3.447489 -9.284157 17.402702 2.815602 -19.612853 -4.195252 -1.473134 60.779777 -4.685980 2.498733 -5.814529 10.050251 0.246591 -0.511517 0.108447 -3.582371 -15.901293 4.693320 28.549409 76.001882 30.354614 1.403274 -11.247918 -5.319235 0.292012 0.754420 0.129727
